<svg xmlns="http://www.w3.org/2000/svg" width="56" height="58" fill="none" viewBox="0 0 56 58"><rect width="54" height="55" fill="#F26C4F"/><path fill="#fff" d="M14.3164 27.0664L12.2305 29.2344V35H9.98047V17.9375H12.2305V26.375L19.8125 17.9375H22.5312L15.8164 25.4727L23.0586 35H20.3633L14.3164 27.0664ZM24.7344 33.8633C24.7344 33.4883 24.8438 33.1758 25.0625 32.9258C25.2891 32.6758 25.625 32.5508 26.0703 32.5508C26.5156 32.5508 26.8516 32.6758 27.0781 32.9258C27.3125 33.1758 27.4297 33.4883 27.4297 33.8633C27.4297 34.2227 27.3125 34.5234 27.0781 34.7656C26.8516 35.0078 26.5156 35.1289 26.0703 35.1289C25.625 35.1289 25.2891 35.0078 25.0625 34.7656C24.8438 34.5234 24.7344 34.2227 24.7344 33.8633ZM31.3555 35V17.9375H36.1719C37.6562 17.9375 38.9688 18.2656 40.1094 18.9219C41.25 19.5781 42.1289 20.5117 42.7461 21.7227C43.3711 22.9336 43.6875 24.3242 43.6953 25.8945V26.9844C43.6953 28.5938 43.3828 30.0039 42.7578 31.2148C42.1406 32.4258 41.2539 33.3555 40.0977 34.0039C38.9492 34.6523 37.6094 34.9844 36.0781 35H31.3555ZM33.6055 19.7891V33.1602H35.9727C37.707 33.1602 39.0547 32.6211 40.0156 31.543C40.9844 30.4648 41.4688 28.9297 41.4688 26.9375V25.9414C41.4688 24.0039 41.0117 22.5 40.0977 21.4297C39.1914 20.3516 37.9023 19.8047 36.2305 19.7891H33.6055Z"/><rect width="15" height="15" x="41" y="43" fill="#000004"/></svg>