<svg xmlns="http://www.w3.org/2000/svg" width="277" height="290" fill="none" viewBox="0 0 277 290"><g clip-path="url(#clip0)"><path fill="#F26C4F" d="M22.2381 80.1215C34.5198 80.1215 44.4761 67.9923 44.4761 53.0301C44.4761 38.068 34.5198 25.9387 22.2381 25.9387C9.95632 25.9387 0 38.068 0 53.0301C0 67.9923 9.95632 80.1215 22.2381 80.1215Z"/><path fill="url(#paint0_linear)" d="M258 227.323C257.898 231.934 257.264 236.505 256.116 240.901C256.09 241.003 256.062 241.104 256.035 241.206H249.006C249.013 241.115 249.021 241.013 249.028 240.901C249.497 234.337 252.199 194.387 248.968 187.555C249.251 188.109 258.545 206.466 258 227.323Z"/><path fill="url(#paint1_linear)" d="M257.472 240.901C257.413 241.003 257.352 241.105 257.29 241.206H252.017C252.057 241.119 252.103 241.017 252.157 240.901C253.028 238.986 255.606 233.259 258 227.323C260.572 220.943 262.932 214.321 262.733 211.925C262.794 212.465 264.574 228.943 257.472 240.901Z"/><path fill="url(#paint2_linear)" d="M277 240.622H74.8768V241.428H277V240.622Z"/><path fill="#FFB8B8" d="M204.255 265.774L205.236 255.906L232.974 247.234L229.783 235.571C232.006 227.804 235.909 223.996 243.038 227.796L255.303 237.078C256.495 237.98 257.466 239.255 258.114 240.771C258.763 242.287 259.065 243.987 258.989 245.694C258.914 247.408 258.461 249.065 257.677 250.491C256.893 251.917 255.807 253.058 254.535 253.795C240.805 261.723 223.306 264.757 204.255 265.774Z"/><path fill="#080D22" d="M205.973 268.765L197.381 267.269L189.346 269.267C188.853 269.39 188.345 269.38 187.856 269.24C187.367 269.1 186.909 268.832 186.513 268.455C186.117 268.077 185.793 267.6 185.564 267.055C185.334 266.511 185.205 265.912 185.184 265.3C185.16 264.616 185.274 263.936 185.514 263.317C185.754 262.698 186.114 262.159 186.563 261.747L199.155 250.19C200.235 249.198 201.57 248.709 202.919 248.808C204.269 248.908 205.545 249.59 206.519 250.732L209.655 254.411C207.411 256.106 205.743 258.651 204.745 262.186C206.902 263.63 207.311 265.823 205.973 268.765Z"/><path fill="#FFB8B8" d="M214.178 165.159C218.567 165.159 222.124 160.825 222.124 155.479C222.124 150.133 218.567 145.8 214.178 145.8C209.79 145.8 206.233 150.133 206.233 155.479C206.233 160.825 209.79 165.159 214.178 165.159Z"/><path fill="#FFB8B8" d="M226.592 174.567L208.796 183.688C210.242 174.841 210.963 166.781 208.796 161.858L220.21 160.213C219.643 163.997 222.531 169.064 226.592 174.567Z"/><path fill="#FFB8B8" d="M196.4 265.475L189.772 264.877C185.712 244.251 183.633 224.755 184.54 206.962C184.669 204.365 185.618 201.929 187.188 200.166C188.759 198.402 190.83 197.449 192.965 197.505C195.017 197.562 196.978 198.548 198.465 200.272L207.036 210.208C210.858 214.605 213.825 219.986 215.72 225.959C218.147 233.704 217.276 238.046 211.481 237.309C207.86 236.817 204.53 234.66 202.17 231.278L195.909 222.413L196.4 265.475Z"/><path fill="#080D22" d="M191.267 289.985C190.398 289.916 189.554 289.604 188.801 289.074C188.047 288.544 187.403 287.809 186.92 286.927C186.437 286.045 186.127 285.039 186.014 283.988C185.901 282.936 185.988 281.867 186.269 280.863L187.563 276.241L188.545 264.578C190.057 260.818 192.199 261.381 194.681 264.279C196.259 264.09 196.598 262.168 196.4 259.494L201.376 267.655C201.802 268.354 202.066 269.178 202.141 270.043C202.217 270.909 202.1 271.783 201.804 272.574L196.796 285.958C196.318 287.233 195.534 288.301 194.546 289.021C193.559 289.74 192.415 290.076 191.267 289.985Z"/><path fill="#080D22" d="M253.962 236.02C244.88 242.3 242.033 242.482 232.974 246.935L225.119 241.552C215.894 245.708 209.423 240.011 202.414 231.534C207.001 222.227 204.972 210.132 207.814 210.302L241.811 223.311L243.284 227.796L253.962 236.02Z"/><path fill="#6C63FF" d="M243.038 226.301C231.034 232.631 218.109 225.929 207.077 211.199L199.773 175.26C199.686 174.864 199.667 174.451 199.717 174.046C199.767 173.641 199.884 173.252 200.062 172.905C200.24 172.557 200.474 172.257 200.75 172.024C201.027 171.791 201.34 171.629 201.669 171.549L210.146 169.483L214.319 177.557L222.665 168.586L231.528 172.116C232.706 172.586 233.758 173.436 234.571 174.577C235.383 175.718 235.926 177.106 236.141 178.594L243.038 226.301Z"/><path fill="#000" d="M223.971 256.769C223.324 256.468 222.744 255.983 222.282 255.353C221.82 254.723 221.489 253.968 221.316 253.15C221.144 252.332 221.135 251.475 221.29 250.652C221.445 249.829 221.76 249.063 222.208 248.419L227.819 240.356L231.747 243.047L229.725 253.092C229.578 253.819 229.307 254.499 228.928 255.089C228.549 255.678 228.072 256.163 227.528 256.51C226.984 256.858 226.386 257.061 225.773 257.105C225.159 257.15 224.545 257.035 223.971 256.769Z" opacity=".2"/><path fill="#FFB8B8" d="M223.971 255.573C223.324 255.272 222.744 254.786 222.282 254.157C221.82 253.527 221.489 252.771 221.316 251.953C221.144 251.135 221.135 250.279 221.29 249.456C221.445 248.633 221.76 247.867 222.208 247.223L227.819 239.16L231.747 241.851L229.725 251.896C229.578 252.622 229.307 253.303 228.928 253.892C228.549 254.482 228.072 254.966 227.528 255.314C226.984 255.662 226.386 255.865 225.773 255.909C225.159 255.954 224.545 255.839 223.971 255.573Z"/><path fill="#6C63FF" d="M232.729 244.243L226.838 239.459L235.429 211.648L232.238 172.474L235.149 174.69C236.711 175.88 238.059 177.443 239.11 179.286C240.161 181.13 240.894 183.214 241.264 185.412L245.984 213.442C243.919 226.362 240.477 237.73 232.729 244.243Z"/><path fill="#000" d="M229.17 199.836L232.115 217.778L229.692 228.272L229.17 199.836Z" opacity=".2"/><path fill="#080D22" d="M206.408 154.649C206.408 154.649 201.829 136.394 215.823 140.223C217.993 140.816 219.868 142.354 221.36 144.364C221.494 144.54 221.657 144.678 221.84 144.768C222.022 144.859 222.218 144.9 222.414 144.889C224.65 144.889 226.03 154.62 221.56 158.899C221.56 158.899 222.472 153.141 220.814 151.179C220.516 150.847 220.266 150.455 220.076 150.021C218.996 147.369 215.369 146.498 212.867 146.724C211.589 146.839 211.478 149.552 210.063 149.173C206.846 148.311 205.819 152.852 206.408 154.649Z"/><path fill="url(#paint3_linear)" d="M220.493 181.744L220.4 182.57L219.828 187.67L218.892 196.022L218.657 198.113C218.639 198.273 218.575 198.419 218.475 198.525C218.375 198.631 218.248 198.689 218.115 198.689H211.871C211.739 198.689 211.611 198.631 211.512 198.526C211.412 198.42 211.347 198.274 211.329 198.115L211.09 196.022L210.138 187.67L209.556 182.566L209.463 181.745C209.452 181.651 209.458 181.555 209.48 181.463C209.502 181.372 209.541 181.288 209.592 181.216C209.643 181.144 209.707 181.086 209.778 181.047C209.849 181.008 209.926 180.987 210.004 180.987H219.951C220.029 180.987 220.106 181.007 220.177 181.047C220.248 181.086 220.311 181.144 220.363 181.215C220.414 181.287 220.452 181.371 220.475 181.462C220.497 181.553 220.503 181.649 220.493 181.744Z"/><path fill="#3F3D56" d="M210.663 178.774H219.324C219.396 178.774 219.467 178.791 219.533 178.825C219.6 178.858 219.66 178.907 219.711 178.969C219.762 179.031 219.802 179.105 219.829 179.185C219.857 179.266 219.871 179.353 219.871 179.44V180.321C219.871 180.497 219.813 180.667 219.711 180.792C219.608 180.917 219.469 180.987 219.324 180.987H210.663C210.518 180.987 210.379 180.917 210.277 180.792C210.174 180.667 210.116 180.497 210.116 180.321V179.44C210.116 179.353 210.131 179.266 210.158 179.185C210.186 179.105 210.226 179.031 210.277 178.969C210.327 178.907 210.388 178.858 210.454 178.825C210.52 178.791 210.591 178.774 210.663 178.774Z"/><path fill="#3F3D56" d="M221.275 182.093C217.1 182.649 212.887 182.649 208.712 182.093C208.641 182.093 208.569 182.076 208.503 182.043C208.437 182.009 208.376 181.96 208.326 181.898C208.275 181.836 208.235 181.763 208.207 181.682C208.18 181.601 208.165 181.515 208.165 181.427V180.547C208.165 180.459 208.18 180.373 208.207 180.292C208.235 180.211 208.275 180.138 208.326 180.076C208.376 180.014 208.437 179.965 208.503 179.931C208.569 179.898 208.641 179.881 208.712 179.881C212.884 180.505 217.103 180.505 221.275 179.881C221.42 179.881 221.559 179.951 221.662 180.076C221.764 180.201 221.822 180.37 221.822 180.547V181.427C221.822 181.604 221.764 181.773 221.662 181.898C221.559 182.023 221.42 182.093 221.275 182.093Z"/><path fill="#F2F2F2" d="M214.74 192.318C216.044 192.318 217.101 191.031 217.101 189.443C217.101 187.854 216.044 186.567 214.74 186.567C213.436 186.567 212.38 187.854 212.38 189.443C212.38 191.031 213.436 192.318 214.74 192.318Z"/><path fill="#FFB8B8" d="M220.809 195.493C220.88 196.333 220.786 197.181 220.533 197.968C220.279 198.754 219.875 199.455 219.354 200.011C218.832 200.568 218.209 200.964 217.536 201.166C216.862 201.368 216.159 201.371 215.485 201.174L207.048 198.706L207.25 193.222L215.521 190.894C216.12 190.725 216.741 190.714 217.343 190.86C217.946 191.006 218.516 191.306 219.016 191.741C219.516 192.176 219.934 192.735 220.243 193.382C220.552 194.029 220.745 194.748 220.809 195.493Z"/><path fill="#6C63FF" d="M209.409 199.686L186.639 200.38C185.817 200.405 185.001 200.211 184.246 199.812C183.492 199.414 182.818 198.819 182.272 198.071C181.725 197.323 181.32 196.438 181.082 195.479C180.845 194.52 180.783 193.509 180.899 192.518C181.081 190.964 181.693 189.533 182.634 188.46L193.355 176.242C195.343 173.976 197.821 172.448 200.497 171.837L204.255 170.979L206.464 191.313L193.699 189.519L208.673 191.612L209.409 199.686Z"/><path fill="#080D22" d="M179.412 259.356H121.281C120.764 259.356 120.268 259.106 119.902 258.661C119.537 258.215 119.332 257.612 119.332 256.982C140.404 253.998 161.08 253.998 181.361 256.982C181.361 257.612 181.155 258.215 180.79 258.661C180.424 259.106 179.929 259.356 179.412 259.356Z"/><path fill="#3F3D56" d="M181.361 257.122L119.332 256.982L126.521 242.246L126.555 242.176V209.699C126.555 209.305 126.619 208.914 126.742 208.55C126.866 208.186 127.048 207.855 127.277 207.576C127.505 207.297 127.777 207.076 128.076 206.925C128.375 206.775 128.695 206.697 129.019 206.697H171.33C171.653 206.697 171.974 206.775 172.272 206.925C172.571 207.076 172.843 207.297 173.072 207.576C173.301 207.855 173.482 208.186 173.606 208.55C173.73 208.914 173.794 209.305 173.793 209.699V242.399L181.361 257.122Z"/><path fill="#F2F2F2" d="M128.963 208.792C128.75 208.793 128.546 208.896 128.395 209.079C128.245 209.262 128.16 209.511 128.16 209.77V239.382C128.16 239.641 128.245 239.89 128.395 240.073C128.546 240.257 128.75 240.36 128.963 240.36H171.73C171.942 240.36 172.146 240.256 172.297 240.073C172.447 239.89 172.532 239.641 172.532 239.382V209.77C172.532 209.511 172.447 209.262 172.297 209.079C172.146 208.896 171.942 208.793 171.73 208.792L128.963 208.792Z"/><path fill="#080D22" d="M129.244 244.271C129.178 244.271 129.114 244.294 129.058 244.337C129.003 244.381 128.959 244.442 128.931 244.515L126.716 250.381C126.692 250.445 126.681 250.516 126.685 250.586C126.689 250.656 126.708 250.723 126.739 250.783C126.77 250.842 126.813 250.891 126.864 250.924C126.914 250.958 126.971 250.976 127.029 250.976H173.612C173.671 250.976 173.728 250.957 173.779 250.923C173.831 250.888 173.874 250.838 173.905 250.777C173.935 250.716 173.953 250.647 173.956 250.575C173.958 250.504 173.946 250.433 173.92 250.369L171.512 244.503C171.483 244.433 171.439 244.374 171.385 244.333C171.331 244.292 171.268 244.271 171.204 244.271L129.244 244.271Z"/><path fill="#F2F2F2" d="M150.174 208.303C150.459 208.303 150.69 208.022 150.69 207.675C150.69 207.328 150.459 207.046 150.174 207.046C149.889 207.046 149.658 207.328 149.658 207.675C149.658 208.022 149.889 208.303 150.174 208.303Z"/><path fill="#080D22" d="M145.595 252.093C145.52 252.093 145.446 252.124 145.386 252.18C145.326 252.236 145.283 252.314 145.263 252.403L144.708 254.917C144.694 254.979 144.692 255.045 144.702 255.108C144.713 255.171 144.735 255.23 144.767 255.281C144.799 255.332 144.84 255.374 144.888 255.402C144.935 255.431 144.987 255.445 145.04 255.445H155.607C155.662 255.445 155.716 255.429 155.765 255.399C155.813 255.368 155.855 255.324 155.887 255.269C155.919 255.215 155.94 255.152 155.947 255.086C155.955 255.02 155.95 254.952 155.932 254.889L155.218 252.375C155.194 252.293 155.15 252.221 155.092 252.171C155.034 252.12 154.964 252.093 154.893 252.093H145.595Z"/><path fill="#080D22" d="M173.793 241.687V242.246H126.521L126.556 242.176V241.687H173.793Z"/><path fill="url(#paint4_linear)" d="M106.491 223.052C106.621 228.963 107.434 234.822 108.905 240.456C108.939 240.587 108.974 240.716 109.01 240.846H118.019C118.009 240.729 118 240.599 117.99 240.456C117.389 232.043 113.926 180.838 118.067 172.082C117.705 172.792 105.793 196.32 106.491 223.052Z"/><path fill="url(#paint5_linear)" d="M107.167 240.456C107.243 240.587 107.321 240.718 107.401 240.846H114.16C114.109 240.735 114.049 240.604 113.98 240.456C112.864 238.001 109.559 230.661 106.491 223.052C103.195 214.875 100.17 206.388 100.425 203.316C100.346 204.009 98.0651 225.129 107.167 240.456Z"/><path fill="#3F3D56" d="M122.411 62.9639L126.074 59.395C123.228 59.0125 122.059 60.9031 121.58 62.3995C119.357 61.2749 116.937 62.7487 116.937 62.7487L124.266 65.9899C123.896 64.7869 123.253 63.7372 122.411 62.9639Z"/><path fill="#3F3D56" d="M232.733 44.5933L236.396 41.0243C233.55 40.6419 232.381 42.5325 231.902 44.0289C229.679 42.9043 227.259 44.3781 227.259 44.3781L234.588 47.6193C234.218 46.4163 233.575 45.3666 232.733 44.5933Z"/><path fill="#3F3D56" d="M211.641 91.9551L215.304 88.3862C212.458 88.0037 211.289 89.8943 210.811 91.3907C208.588 90.2661 206.167 91.7399 206.167 91.7399L213.496 94.9811C213.126 93.7781 212.483 92.7284 211.641 91.9551Z"/><path fill="url(#paint6_linear)" d="M67.8576 162.127C85.833 158.178 95.0442 118.756 88.4314 74.0744C81.8186 29.3928 61.886 -3.62813 43.9106 0.320097C25.9352 4.26832 16.724 43.6906 23.3368 88.3722C29.9496 133.054 49.8822 166.075 67.8576 162.127Z"/><path fill="#3F3D56" d="M50.4677 65.8364C53.3766 75.4728 55.9652 85.2405 58.2335 95.1395C60.4975 105.029 62.4341 115.019 64.0434 125.108C65.6525 135.194 66.9282 145.347 67.8706 155.568C68.8083 165.772 69.4108 176.01 69.6781 186.283C69.9437 196.544 69.8704 206.808 69.458 217.074C69.4073 218.331 69.3514 219.589 69.2903 220.846C69.2282 222.133 70.8724 222.129 70.9344 220.846C71.4313 210.548 71.5872 200.237 71.402 189.913C71.2159 179.649 70.6927 169.404 69.8324 159.18C68.9701 148.926 67.7754 138.723 66.2485 128.573C64.7206 118.427 62.8604 108.366 60.668 98.3909C58.4768 88.427 55.9574 78.5818 53.1098 68.8554C52.7624 67.6694 52.4101 66.4856 52.053 65.304C51.6908 64.1043 50.1013 64.6228 50.4677 65.8364V65.8364Z"/><path fill="#3F3D56" d="M61.7959 103.744L69.0796 84.0417L71.1325 78.4886C71.2361 78.2575 71.2632 77.9869 71.2084 77.7322C71.1536 77.4775 71.0209 77.2579 70.8376 77.1185C70.649 76.9865 70.4253 76.9502 70.2148 77.0174C70.0044 77.0846 69.8241 77.25 69.7129 77.4777L62.4292 97.1799L60.3763 102.733C60.2727 102.964 60.2456 103.235 60.3004 103.489C60.3552 103.744 60.4879 103.964 60.6712 104.103C60.8598 104.235 61.0835 104.272 61.294 104.204C61.5044 104.137 61.6847 103.972 61.7959 103.744H61.7959Z"/><path fill="#3F3D56" d="M63.4053 117.206L46.7971 109.62L42.1161 107.482C41.9059 107.414 41.6821 107.449 41.4929 107.579C41.3038 107.71 41.1644 107.926 41.1049 108.181C41.0517 108.437 41.0817 108.708 41.1887 108.938C41.2957 109.167 41.4714 109.338 41.679 109.413L58.2872 116.999L62.9682 119.137C63.1784 119.206 63.4022 119.171 63.5914 119.04C63.7805 118.909 63.9199 118.693 63.9794 118.438C64.0326 118.182 64.0026 117.911 63.8956 117.681C63.7886 117.452 63.6129 117.281 63.4053 117.206V117.206Z"/><path fill="url(#paint7_linear)" d="M50.4723 224.667C50.4723 224.667 70.4747 216.656 89.1071 224.667H50.4723Z"/><path fill="#6C63FF" d="M139.975 220.872C143.938 220.821 147.901 220.735 151.865 220.669C153.186 220.648 154.508 220.628 155.829 220.612C156.968 220.597 156.97 218.441 155.829 218.455C151.865 218.505 147.902 218.592 143.939 218.657C142.617 218.679 141.296 218.698 139.975 218.715C138.836 218.729 138.833 220.886 139.975 220.872Z"/><path fill="#6C63FF" d="M139.975 225.904L155.994 225.702L160.55 225.644C161.689 225.63 161.692 223.473 160.55 223.488L144.531 223.69L139.975 223.747C138.836 223.762 138.833 225.919 139.975 225.904Z"/><path fill="#6C63FF" d="M139.975 230.937L155.994 230.734L160.55 230.677C161.689 230.663 161.692 228.506 160.55 228.52L144.531 228.722L139.975 228.78C138.836 228.794 138.833 230.951 139.975 230.937Z"/></g><defs><linearGradient id="paint0_linear" x1="253.495" x2="253.495" y1="187.555" y2="241.206" gradientUnits="userSpaceOnUse"><stop offset=".417" stop-color="#A255F0"/><stop offset="1" stop-color="#4385F4"/></linearGradient><linearGradient id="paint1_linear" x1="257.496" x2="257.496" y1="211.925" y2="241.206" gradientUnits="userSpaceOnUse"><stop offset=".417" stop-color="#A255F0"/><stop offset="1" stop-color="#4385F4"/></linearGradient><linearGradient id="paint2_linear" x1="175.938" x2="175.938" y1="240.622" y2="241.428" gradientUnits="userSpaceOnUse"><stop offset=".417" stop-color="#A255F0"/><stop offset="1" stop-color="#4385F4"/></linearGradient><linearGradient id="paint3_linear" x1="214.978" x2="214.978" y1="180.987" y2="198.689" gradientUnits="userSpaceOnUse"><stop offset=".417" stop-color="#A255F0"/><stop offset="1" stop-color="#4385F4"/></linearGradient><linearGradient id="paint4_linear" x1="112.264" x2="112.264" y1="172.082" y2="240.846" gradientUnits="userSpaceOnUse"><stop offset=".417" stop-color="#A255F0"/><stop offset="1" stop-color="#4385F4"/></linearGradient><linearGradient id="paint5_linear" x1="107.137" x2="107.137" y1="203.316" y2="240.846" gradientUnits="userSpaceOnUse"><stop offset=".417" stop-color="#A255F0"/><stop offset="1" stop-color="#4385F4"/></linearGradient><linearGradient id="paint6_linear" x1="43.911" x2="78.917" y1=".32" y2="159.697" gradientUnits="userSpaceOnUse"><stop offset=".417" stop-color="#A255F0"/><stop offset="1" stop-color="#4385F4"/></linearGradient><linearGradient id="paint7_linear" x1="69.79" x2="69.79" y1="221.107" y2="224.667" gradientUnits="userSpaceOnUse"><stop offset=".417" stop-color="#A255F0"/><stop offset="1" stop-color="#4385F4"/></linearGradient><clipPath id="clip0"><rect width="277" height="290" fill="#fff"/></clipPath></defs></svg>